<svg t="1612113217128" class="icon" viewBox="0 0 1024 1024" version="1.1" xmlns="http://www.w3.org/2000/svg" p-id="2781" width="20" height="20"><path d="M385.692278 918.576916 390.80771 919.307658C421.012953 920.769221 443.423035 921.499963 458.03843 921.499963 545.73119 921.499963 609.551045 905.545019 649.499963 873.63458 689.448881 841.724219 709.423104 790.449073 709.423104 719.807724 709.423104 655.986846 690.66689 608.365568 653.153831 576.942316 615.640852 545.519065 559.372209 529.807675 484.346171 529.807675 462.422961 529.807675 444.153935 530.051308 429.538462 530.538496 414.922988 531.025605 400.307751 531.756426 385.692278 532.730801L385.692278 918.576916ZM386.423099 445.769255C390.320522 446.256443 395.192241 446.621775 401.038494 446.865408 406.884667 447.108962 415.410176 447.23074 426.615414 447.23074 504.5645 447.23074 561.929295 431.51935 598.711532 400.096177 635.49377 368.672926 653.884652 319.590085 653.884652 252.846159 653.884652 194.384345 636.833477 151.025822 602.730732 122.76925 568.628066 94.512679 516.256768 80.38463 445.615419 80.38463 433.922993 80.38463 415.410412 81.358927 390.076889 83.307678L385.692278 83.307678 386.423099 445.769255ZM78.769231 0 528.192276 0C638.295434 0 721.115136 19.608812 776.653824 58.82691 832.192591 98.045086 859.961502 156.62781 859.961502 234.576896 859.961502 293.525898 841.936108 342.852372 805.884613 382.557657 769.833118 422.26302 716.731156 451.371717 646.576916 469.884613 732.320926 471.346176 799.063828 493.268992 846.80767 535.653849 894.551513 578.038705 918.423079 636.499653 918.423079 711.038425 918.423079 805.551734 886.026004 878.018954 821.23075 928.442289 756.435574 978.865625 663.141612 1004.076898 541.346186 1004.076898L78.769231 1004.076898 78.769231 931.000005 167.19234 922.961526 191.307697 899.576911 191.307697 101.57694 167.19234 80.38463 78.769231 73.076894 78.769231 0Z" p-id="2782"></path></svg>