<svg t="1612197963532" class="icon" viewBox="0 0 1024 1024" version="1.1" xmlns="http://www.w3.org/2000/svg" p-id="2003" width="20" height="20"><path d="M992 160V96c0-17.674-14.326-32-32-32H640c-17.674 0-32 14.326-32 32v64c0 17.674 14.326 32 32 32h75.242v256H308.758V192H384c17.674 0 32-14.326 32-32V96c0-17.674-14.326-32-32-32H64c-17.674 0-32 14.326-32 32v64c0 17.674 14.326 32 32 32h74.55v640H64c-17.674 0-32 14.326-32 32v64c0 17.674 14.326 32 32 32h320c17.674 0 32-14.326 32-32v-64c0-17.674-14.326-32-32-32h-75.242V576H715.24v256H640c-17.674 0-32 14.326-32 32v64c0 17.674 14.326 32 32 32h320c17.674 0 32-14.326 32-32v-64c0-17.674-14.326-32-32-32h-74.55V192H960c17.674 0 32-14.326 32-32z" p-id="2004"></path></svg>